<svg width="21" height="20" viewBox="0 0 21 20" fill="none" xmlns="http://www.w3.org/2000/svg">
<path d="M3.625 2.5C3.45924 2.5 3.30027 2.56585 3.18306 2.68306C3.06585 2.80027 3 2.95924 3 3.125C3 3.29076 3.06585 3.44973 3.18306 3.56694C3.30027 3.68415 3.45924 3.75 3.625 3.75H3.9325C4.06821 3.75023 4.20016 3.79464 4.30841 3.8765C4.41666 3.95836 4.49531 4.07323 4.5325 4.20375L6.515 11.1413C6.62713 11.5328 6.86368 11.8771 7.18888 12.1223C7.51408 12.3674 7.91025 12.5 8.3175 12.5H14.0287C14.4036 12.5001 14.7698 12.3878 15.0802 12.1777C15.3905 11.9676 15.6308 11.6693 15.77 11.3212L17.6125 6.71375C17.6882 6.52416 17.7164 6.3189 17.6945 6.11591C17.6726 5.91293 17.6013 5.7184 17.4869 5.54932C17.3724 5.38025 17.2183 5.24178 17.038 5.14602C16.8577 5.05026 16.6567 5.00013 16.4525 5H6.06L5.73375 3.86C5.62191 3.46847 5.38564 3.12398 5.06068 2.87862C4.73571 2.63326 4.33969 2.50036 3.9325 2.5H3.625ZM7.7175 10.7963L6.4175 6.25H16.4513L14.6087 10.8575C14.5623 10.9734 14.4823 11.0727 14.3789 11.1426C14.2755 11.2126 14.1536 11.25 14.0287 11.25H8.3175C8.18179 11.2498 8.04984 11.2054 7.94159 11.1235C7.83334 11.0416 7.75469 10.9268 7.7175 10.7963ZM8.625 17.5C8.87123 17.5 9.11505 17.4515 9.34253 17.3573C9.57002 17.263 9.77672 17.1249 9.95083 16.9508C10.1249 16.7767 10.263 16.57 10.3573 16.3425C10.4515 16.115 10.5 15.8712 10.5 15.625C10.5 15.3788 10.4515 15.135 10.3573 14.9075C10.263 14.68 10.1249 14.4733 9.95083 14.2992C9.77672 14.1251 9.57002 13.987 9.34253 13.8927C9.11505 13.7985 8.87123 13.75 8.625 13.75C8.12772 13.75 7.65081 13.9475 7.29917 14.2992C6.94754 14.6508 6.75 15.1277 6.75 15.625C6.75 16.1223 6.94754 16.5992 7.29917 16.9508C7.65081 17.3025 8.12772 17.5 8.625 17.5ZM8.625 16.25C8.45924 16.25 8.30027 16.1842 8.18306 16.0669C8.06585 15.9497 8 15.7908 8 15.625C8 15.4592 8.06585 15.3003 8.18306 15.1831C8.30027 15.0658 8.45924 15 8.625 15C8.79076 15 8.94973 15.0658 9.06694 15.1831C9.18415 15.3003 9.25 15.4592 9.25 15.625C9.25 15.7908 9.18415 15.9497 9.06694 16.0669C8.94973 16.1842 8.79076 16.25 8.625 16.25ZM13.625 17.5C13.8712 17.5 14.115 17.4515 14.3425 17.3573C14.57 17.263 14.7767 17.1249 14.9508 16.9508C15.1249 16.7767 15.263 16.57 15.3573 16.3425C15.4515 16.115 15.5 15.8712 15.5 15.625C15.5 15.3788 15.4515 15.135 15.3573 14.9075C15.263 14.68 15.1249 14.4733 14.9508 14.2992C14.7767 14.1251 14.57 13.987 14.3425 13.8927C14.115 13.7985 13.8712 13.75 13.625 13.75C13.1277 13.75 12.6508 13.9475 12.2992 14.2992C11.9475 14.6508 11.75 15.1277 11.75 15.625C11.75 16.1223 11.9475 16.5992 12.2992 16.9508C12.6508 17.3025 13.1277 17.5 13.625 17.5ZM13.625 16.25C13.4592 16.25 13.3003 16.1842 13.1831 16.0669C13.0658 15.9497 13 15.7908 13 15.625C13 15.4592 13.0658 15.3003 13.1831 15.1831C13.3003 15.0658 13.4592 15 13.625 15C13.7908 15 13.9497 15.0658 14.0669 15.1831C14.1842 15.3003 14.25 15.4592 14.25 15.625C14.25 15.7908 14.1842 15.9497 14.0669 16.0669C13.9497 16.1842 13.7908 16.25 13.625 16.25Z" fill="#28242D"/>
</svg>
