<svg width="22" height="26" viewBox="0 0 22 26" fill="none" xmlns="http://www.w3.org/2000/svg">
<path d="M5.75 5.41675C5.75 4.02436 6.30312 2.689 7.28769 1.70444C8.27226 0.719871 9.60761 0.166748 11 0.166748C12.3924 0.166748 13.7277 0.719871 14.7123 1.70444C15.6969 2.689 16.25 4.02436 16.25 5.41675V7.16675H21.5V25.8334H0.5V7.16675H5.75V5.41675ZM5.75 9.50008H2.83333V23.5001H19.1667V9.50008H16.25V13.0001H13.9167V9.50008H8.08333V13.0001H5.75V9.50008ZM13.9167 7.16675V5.41675C13.9167 4.6432 13.6094 3.90133 13.0624 3.35435C12.5154 2.80737 11.7735 2.50008 11 2.50008C10.2265 2.50008 9.48459 2.80737 8.9376 3.35435C8.39062 3.90133 8.08333 4.6432 8.08333 5.41675V7.16675H13.9167Z" fill="black"/>
</svg>
