<svg width="35" height="35" viewBox="0 0 35 35" fill="none" xmlns="http://www.w3.org/2000/svg">
<path d="M28.5043 26.1832C28.8125 26.4914 28.9857 26.9095 28.9857 27.3453C28.9857 27.7812 28.8125 28.1992 28.5043 28.5074C28.1961 28.8156 27.7781 28.9888 27.3422 28.9888C26.9063 28.9888 26.4883 28.8156 26.1801 28.5074L17.4998 19.8244L8.81681 28.5047C8.5086 28.8129 8.09058 28.9861 7.6547 28.9861C7.21883 28.9861 6.8008 28.8129 6.49259 28.5047C6.18438 28.1965 6.01123 27.7785 6.01123 27.3426C6.01123 26.9067 6.18438 26.4887 6.49259 26.1805L15.1756 17.5002L6.49533 8.8172C6.18712 8.50899 6.01396 8.09097 6.01396 7.65509C6.01396 7.21922 6.18712 6.80119 6.49533 6.49298C6.80354 6.18477 7.22156 6.01162 7.65744 6.01162C8.09331 6.01162 8.51133 6.18477 8.81955 6.49298L17.4998 15.176L26.1828 6.49162C26.491 6.1834 26.9091 6.01025 27.3449 6.01025C27.7808 6.01025 28.1988 6.1834 28.507 6.49162C28.8153 6.79983 28.9884 7.21785 28.9884 7.65372C28.9884 8.0896 28.8153 8.50762 28.507 8.81583L19.824 17.5002L28.5043 26.1832Z" fill="white"/>
</svg>
