<svg width="27" height="26" viewBox="0 0 27 26" fill="none" xmlns="http://www.w3.org/2000/svg">
<path d="M13.4998 2.1665C19.4582 2.1665 24.3332 7.0415 24.3332 12.9998C24.3332 18.9582 19.4582 23.8332 13.4998 23.8332C7.5415 23.8332 2.6665 18.9582 2.6665 12.9998C2.6665 7.0415 7.5415 2.1665 13.4998 2.1665ZM13.4998 4.33317C11.4415 4.33317 9.59984 4.98317 8.1915 6.17484L20.3248 18.3082C21.4082 16.7915 22.1665 14.9498 22.1665 12.9998C22.1665 8.23317 18.2665 4.33317 13.4998 4.33317ZM18.8082 19.8248L6.67484 7.6915C5.48317 9.09984 4.83317 10.9415 4.83317 12.9998C4.83317 17.7665 8.73317 21.6665 13.4998 21.6665C15.5582 21.6665 17.3998 21.0165 18.8082 19.8248Z" fill="#FFF3F3"/>
</svg>
