<svg width="21" height="20" viewBox="0 0 21 20" fill="none" xmlns="http://www.w3.org/2000/svg">
<path d="M10.0002 15.1343L16.1635 8.97093C15.1266 8.53799 14.1848 7.90544 13.3918 7.10926C12.5953 6.3161 11.9625 5.37407 11.5293 4.33676L5.36601 10.5001C4.88518 10.9809 4.64435 11.2218 4.43768 11.4868C4.1936 11.7995 3.98431 12.1379 3.81351 12.4959C3.66935 12.7993 3.56185 13.1226 3.34685 13.7676L2.21185 17.1701C2.15961 17.3259 2.15186 17.4932 2.18947 17.6531C2.22707 17.8131 2.30855 17.9593 2.42474 18.0755C2.54093 18.1917 2.68722 18.2732 2.84717 18.3108C3.00712 18.3484 3.17439 18.3407 3.33018 18.2884L6.73268 17.1534C7.37851 16.9384 7.70101 16.8309 8.00435 16.6868C8.36268 16.5159 8.70101 16.3068 9.01351 16.0626C9.27851 15.8559 9.51935 15.6151 10.0002 15.1343ZM17.8735 7.26093C18.488 6.6464 18.8333 5.81292 18.8333 4.94384C18.8333 4.07477 18.488 3.24129 17.8735 2.62676C17.259 2.01223 16.4255 1.66699 15.5564 1.66699C14.6874 1.66699 13.8539 2.01223 13.2393 2.62676L12.5002 3.36593L12.5318 3.45843C12.8961 4.50069 13.4922 5.44668 14.2752 6.22509C15.0769 7.03151 16.056 7.63935 17.1343 8.00009L17.8735 7.26093Z" fill="#28242D"/>
</svg>
