<svg width="18" height="18" viewBox="0 0 18 18" fill="none" xmlns="http://www.w3.org/2000/svg">
<path d="M16.6854 6.88359C16.6273 6.69918 16.5154 6.53635 16.364 6.41606C16.2127 6.29577 16.0288 6.22352 15.836 6.20859L11.6552 5.84719C11.63 5.8447 11.6058 5.83541 11.5854 5.82031C11.565 5.8052 11.549 5.78485 11.5392 5.76141L9.90586 1.86891C9.83022 1.69133 9.70404 1.53992 9.54302 1.43349C9.382 1.32707 9.19325 1.27032 9.00024 1.27032C8.80722 1.27032 8.61847 1.32707 8.45745 1.43349C8.29643 1.53992 8.17026 1.69133 8.09461 1.86891L6.46125 5.76141C6.45146 5.78485 6.43551 5.8052 6.41508 5.82031C6.39466 5.83541 6.37052 5.8447 6.34524 5.84719L2.16445 6.20859C1.97169 6.22352 1.7878 6.29577 1.63643 6.41606C1.48507 6.53635 1.37315 6.69918 1.31508 6.88359C1.25358 7.06827 1.2482 7.26703 1.29964 7.45476C1.35108 7.64248 1.45702 7.81075 1.60406 7.93828L4.77586 10.7051C4.79528 10.7223 4.80971 10.7445 4.81762 10.7692C4.82554 10.794 4.82666 10.8204 4.82086 10.8457L3.86742 14.9597C3.82298 15.1491 3.83566 15.3474 3.90386 15.5296C3.97206 15.7119 4.09273 15.8698 4.25063 15.9834C4.40607 16.0981 4.59233 16.1636 4.78534 16.1714C4.97836 16.1791 5.16928 16.1289 5.33344 16.027L8.92711 13.8473C8.94823 13.8343 8.97258 13.8273 8.99742 13.8273C9.02226 13.8273 9.04661 13.8343 9.06774 13.8473L12.6614 16.027C12.8273 16.1286 13.0195 16.1787 13.2138 16.1711C13.4082 16.1635 13.5959 16.0985 13.7533 15.9844C13.9108 15.8702 14.0309 15.7119 14.0984 15.5296C14.166 15.3472 14.1781 15.1489 14.133 14.9597L13.1824 10.8443C13.1766 10.819 13.1777 10.7926 13.1857 10.7678C13.1936 10.7431 13.208 10.7209 13.2274 10.7037L16.3992 7.93687C16.5455 7.80912 16.6507 7.64095 16.7017 7.45353C16.7526 7.2661 16.7469 7.06781 16.6854 6.88359ZM15.8416 7.29984L12.6698 10.0666C12.5347 10.1842 12.4342 10.3365 12.3792 10.507C12.3242 10.6775 12.3167 10.8597 12.3577 11.0341L13.3083 15.1495C13.3153 15.1772 13.3138 15.2063 13.3038 15.2331C13.2939 15.2598 13.2761 15.2829 13.2527 15.2993C13.2316 15.3162 13.2056 15.326 13.1785 15.3271C13.1515 15.3282 13.1248 15.3207 13.1023 15.3056L9.50859 13.1259C9.35538 13.0328 9.17953 12.9836 9.00024 12.9836C8.82094 12.9836 8.64509 13.0328 8.49188 13.1259L4.8982 15.3056C4.87571 15.3207 4.84899 15.3282 4.82193 15.3271C4.79487 15.326 4.76888 15.3162 4.74774 15.2993C4.72438 15.2829 4.70655 15.2598 4.69663 15.2331C4.68671 15.2063 4.68516 15.1772 4.69219 15.1495L5.64281 11.0341C5.68374 10.8597 5.6763 10.6775 5.62128 10.507C5.56627 10.3365 5.46577 10.1842 5.33063 10.0666L2.15883 7.29984C2.13714 7.28139 2.12156 7.2568 2.11415 7.2293C2.10674 7.2018 2.10786 7.17271 2.11734 7.14586C2.12445 7.11912 2.13984 7.09533 2.16132 7.07789C2.1828 7.06046 2.20925 7.05028 2.23688 7.04883L6.41836 6.68742C6.59737 6.67217 6.7688 6.60822 6.91406 6.50249C7.05932 6.39677 7.17288 6.25331 7.24242 6.08766L8.87578 2.19516C8.88714 2.171 8.90514 2.15057 8.92767 2.13626C8.95021 2.12195 8.97635 2.11435 9.00305 2.11435C9.02974 2.11435 9.05589 2.12195 9.07842 2.13626C9.10096 2.15057 9.11896 2.171 9.13031 2.19516L10.758 6.08766C10.8274 6.25291 10.9405 6.39611 11.0852 6.5018C11.2299 6.6075 11.4008 6.67168 11.5793 6.68742L15.7608 7.04883C15.7884 7.05028 15.8149 7.06046 15.8363 7.07789C15.8578 7.09533 15.8732 7.11912 15.8803 7.14586C15.8901 7.17243 15.8917 7.20135 15.8848 7.22883C15.8779 7.25631 15.8628 7.28106 15.8416 7.29984Z" fill="#F5961D"/>
</svg>
