<svg width="19" height="20" viewBox="0 0 19 20" fill="none" xmlns="http://www.w3.org/2000/svg">
<path d="M2.45411 9.44583L5.30411 12.0583L4.51244 15.7C4.43327 16.175 4.59161 16.65 4.98744 16.8875C5.14577 17.0458 5.38327 17.125 5.62077 17.125C5.77911 17.125 5.93744 17.125 6.09577 17.0458C6.09577 17.0458 6.17494 17.0458 6.17494 16.9667L9.42077 15.1458L12.6666 16.9667C12.6666 16.9667 12.7458 16.9667 12.7458 17.0458C13.1416 17.2042 13.6166 17.2042 13.9333 16.9667C14.3291 16.7292 14.4874 16.2542 14.4083 15.7792L13.6166 12.1375C13.9333 11.9 14.4083 11.425 14.8833 10.95L16.3874 9.60417L16.4666 9.525C16.7833 9.20833 16.8624 8.73333 16.7041 8.3375C16.5458 7.94167 16.2291 7.625 15.7541 7.54583H15.6749L11.9541 7.15L10.4499 3.74583C10.4499 3.74583 10.4499 3.66667 10.3708 3.66667C10.2916 3.1125 9.89577 2.875 9.49994 2.875C9.10411 2.875 8.70827 3.1125 8.47077 3.50833C8.47077 3.50833 8.47077 3.5875 8.39161 3.5875L6.88744 6.99167L3.16661 7.3875H3.08744C2.69161 7.46667 2.29577 7.78333 2.13744 8.17917C2.05827 8.65417 2.13744 9.12917 2.45411 9.44583ZM9.49994 13.4042V5.09167L10.8458 8.1C10.9249 8.3375 11.2416 8.49583 11.4791 8.575L14.8041 8.97083L12.3499 11.1875C12.1124 11.3458 12.0333 11.6625 12.1124 11.9792C12.1124 12.1375 12.5083 13.7208 12.7458 15.225L9.89577 13.5625C9.73744 13.4042 9.65827 13.4042 9.49994 13.4042Z" fill="#F5961D"/>
</svg>
