<svg width="33" height="32" viewBox="0 0 33 32" fill="none" xmlns="http://www.w3.org/2000/svg">
<g clip-path="url(#clip0_1305_6428)">
<path fill-rule="evenodd" clip-rule="evenodd" d="M12.4907 25.1164C12.716 23.219 12.408 21.2404 11.7227 19.4644C10.964 17.499 9.95602 15.371 9.83069 13.255C9.72535 11.4724 10.1294 9.36303 11.2067 7.91903C12.3867 6.33769 14.324 5.33369 16.456 5.33369H18.472C20.1444 5.33361 21.7557 5.96209 22.9864 7.09447C24.2171 8.22685 24.9772 9.78042 25.116 11.447L25.5974 17.223C25.6127 17.4069 25.5897 17.5919 25.5298 17.7664C25.4699 17.9409 25.3745 18.101 25.2496 18.2367C25.1246 18.3725 24.9729 18.4808 24.8039 18.5548C24.635 18.6289 24.4525 18.6671 24.268 18.667H17.1667C16.0587 18.667 15.1734 19.5644 15.164 20.6564C15.1547 21.9497 15.236 23.5457 14.6414 24.7364C14.108 25.803 13.6094 26.0004 13.1667 26.0004C12.7667 26.0004 12.4467 25.4764 12.4907 25.1164ZM13.1667 28.667C14.9747 28.667 16.2254 27.531 17.0267 25.9297C17.7227 24.5377 17.788 22.863 17.8227 21.3337H24.268C24.8215 21.3338 25.3689 21.219 25.8757 20.9967C26.3825 20.7743 26.8376 20.4492 27.2123 20.0419C27.587 19.6346 27.8731 19.154 28.0526 18.6305C28.232 18.1069 28.3008 17.5519 28.2547 17.0004L27.7734 11.2257C27.579 8.89248 26.5149 6.71753 24.792 5.1322C23.0691 3.54687 20.8133 2.66698 18.472 2.66703H16.456C15.1911 2.66359 13.9389 2.91964 12.7769 3.41936C11.6148 3.91909 10.5676 4.65185 9.70002 5.57236C9.09058 5.41307 8.46327 5.33241 7.83335 5.33236C6.35602 5.33236 5.12935 6.16169 4.33469 7.47903C3.56135 8.75903 3.16669 10.5244 3.16669 12.6657C3.16669 14.8084 3.56269 16.575 4.33469 17.855C5.12935 19.1737 6.35602 20.0004 7.83335 20.0004C8.20802 20.0004 8.60535 19.9337 9.00269 19.8217C9.61335 21.4217 10.048 23.071 9.84269 24.8017C9.61335 26.7284 11.188 28.667 13.1667 28.667ZM8.09469 17.3017C7.44802 17.435 6.94135 17.0137 6.61869 16.4777C6.18402 15.7577 5.83335 14.5257 5.83335 12.667C5.83335 10.8084 6.18402 9.57503 6.61735 8.85503C7.03069 8.17236 7.47069 8.00036 7.83335 8.00036C7.91869 8.00036 8.00269 8.00303 8.08669 8.00703C7.37202 9.61769 7.06535 11.6604 7.16935 13.4124C7.23202 14.4857 7.65069 15.9697 8.09469 17.3017Z" fill="#28242D"/>
</g>
<defs>
<clipPath id="clip0_1305_6428">
<rect width="32" height="32" fill="white" transform="translate(0.5)"/>
</clipPath>
</defs>
</svg>
