<svg width="32" height="32" viewBox="0 0 32 32" fill="none" xmlns="http://www.w3.org/2000/svg">
<g clip-path="url(#clip0_1040_9591)">
<path fill-rule="evenodd" clip-rule="evenodd" d="M12.6665 28.6667C14.4745 28.6667 15.7252 27.5307 16.5265 25.9293C17.2225 24.5373 17.2878 22.8627 17.3225 21.3333H23.7678C24.3213 21.3334 24.8687 21.2186 25.3755 20.9963C25.8823 20.7739 26.3374 20.4488 26.7121 20.0416C27.0868 19.6343 27.373 19.1537 27.5524 18.6301C27.7318 18.1066 27.8006 17.5515 27.7545 17L27.2732 11.2253C27.0788 8.89212 26.0147 6.71716 24.2918 5.13183C22.5689 3.54651 20.3131 2.66661 17.9718 2.66666H15.9558C14.6909 2.66322 13.4387 2.91928 12.2767 3.419C11.1146 3.91872 10.0674 4.65148 9.19984 5.57199C8.5904 5.4127 7.96308 5.33205 7.33317 5.33199C5.85584 5.33199 4.62917 6.16133 3.8345 7.47866C3.06117 8.75866 2.6665 10.524 2.6665 12.6653C2.6665 14.808 3.0625 16.5747 3.8345 17.8547C4.62917 19.1733 5.85584 20 7.33317 20C7.70784 20 8.10517 19.9333 8.5025 19.8213C9.11317 21.4213 9.54784 23.0707 9.3425 24.8013C9.11317 26.728 10.6878 28.6667 12.6665 28.6667Z" fill="#0A122A"/>
</g>
<defs>
<clipPath id="clip0_1040_9591">
<rect width="32" height="32" fill="white"/>
</clipPath>
</defs>
</svg>
