<svg width="32" height="32" viewBox="0 0 32 32" fill="none" xmlns="http://www.w3.org/2000/svg">
<g clip-path="url(#clip0_1040_9588)">
<path fill-rule="evenodd" clip-rule="evenodd" d="M12.6665 3.33331C14.4745 3.33331 15.7252 4.46931 16.5265 6.07065C17.2225 7.46398 17.2878 9.13731 17.3225 10.6666H23.7678C24.3213 10.6666 24.8687 10.7813 25.3755 11.0037C25.8823 11.226 26.3374 11.5511 26.7121 11.9584C27.0868 12.3657 27.373 12.8463 27.5524 13.3699C27.7318 13.8934 27.8006 14.4485 27.7545 15L27.2732 20.7746C27.0788 23.1079 26.0147 25.2828 24.2918 26.8681C22.5689 28.4535 20.3131 29.3334 17.9718 29.3333H15.9558C13.674 29.3383 11.4704 28.5018 9.7665 26.984C9.58505 26.8233 9.3705 26.7044 9.13803 26.6357C8.90555 26.567 8.66083 26.5503 8.42117 26.5866C8.061 26.6403 7.69732 26.6671 7.33317 26.6666C5.85584 26.6666 4.62917 25.84 3.8345 24.5226C3.06117 23.2426 2.6665 21.476 2.6665 19.3333C2.6665 17.192 3.0625 15.4253 3.8345 14.1453C4.62917 12.8266 5.85584 12 7.33317 12C7.70784 12 8.10517 12.0666 8.5025 12.1786C9.11317 10.5786 9.54784 8.92931 9.3425 7.19865C9.11317 5.27198 10.6878 3.33331 12.6665 3.33331Z" fill="#0A122A"/>
</g>
<defs>
<clipPath id="clip0_1040_9588">
<rect width="32" height="32" fill="white"/>
</clipPath>
</defs>
</svg>
