<svg width="33" height="32" viewBox="0 0 33 32" fill="none" xmlns="http://www.w3.org/2000/svg">
<g clip-path="url(#clip0_1305_6424)">
<path fill-rule="evenodd" clip-rule="evenodd" d="M12.4907 6.88367C12.716 8.78101 12.408 10.7597 11.7227 12.5357C10.964 14.501 9.95602 16.629 9.83069 18.745C9.72535 20.5277 10.1294 22.637 11.2067 24.081C12.3867 25.6623 14.324 26.6663 16.456 26.6663H18.472C20.1444 26.6664 21.7557 26.038 22.9864 24.9056C24.2171 23.7732 24.9772 22.2196 25.116 20.553L25.5974 14.777C25.6127 14.5932 25.5897 14.4082 25.5298 14.2337C25.4699 14.0592 25.3745 13.899 25.2496 13.7633C25.1246 13.6276 24.9729 13.5192 24.8039 13.4452C24.635 13.3711 24.4525 13.3329 24.268 13.333H17.1667C16.638 13.3327 16.1308 13.1234 15.7557 12.7508C15.3806 12.3782 15.1679 11.8724 15.164 11.3437C15.1547 10.0503 15.236 8.45434 14.6414 7.26367C14.108 6.19701 13.6094 5.99967 13.1667 5.99967C12.7667 5.99967 12.4467 6.52367 12.4907 6.88367ZM13.1667 3.33301C14.9747 3.33301 16.2254 4.46901 17.0267 6.07034C17.7227 7.46367 17.788 9.13701 17.8227 10.6663H24.268C24.8215 10.6663 25.3689 10.781 25.8757 11.0034C26.3825 11.2257 26.8376 11.5508 27.2123 11.9581C27.587 12.3654 27.8731 12.846 28.0526 13.3696C28.232 13.8931 28.3008 14.4482 28.2547 14.9997L27.7734 20.7743C27.579 23.1076 26.5149 25.2825 24.792 26.8678C23.0691 28.4532 20.8133 29.3331 18.472 29.333H16.456C15.1912 29.3366 13.9391 29.0808 12.777 28.5813C11.615 28.0818 10.5677 27.3493 9.70002 26.429C9.09046 26.5874 8.46315 26.6671 7.83335 26.6663C6.35602 26.6663 5.12935 25.8397 4.33469 24.5223C3.56135 23.2423 3.16669 21.4757 3.16669 19.333C3.16669 17.1917 3.56269 15.425 4.33469 14.145C5.12935 12.8263 6.35602 11.9997 7.83335 11.9997C8.20802 11.9997 8.60535 12.0663 9.00269 12.1783C9.61335 10.5783 10.048 8.92901 9.84269 7.19834C9.61335 5.27167 11.188 3.33301 13.1667 3.33301ZM8.09469 14.6983C7.44802 14.565 6.94135 14.9863 6.61869 15.5223C6.18402 16.2423 5.83335 17.4743 5.83335 19.333C5.83335 21.1917 6.18402 22.425 6.61735 23.145C7.03069 23.8277 7.47069 23.9997 7.83335 23.9997C7.91869 23.9997 8.00269 23.997 8.08669 23.993C7.37202 22.3823 7.06535 20.3397 7.16935 18.5877C7.23202 17.5143 7.65069 16.0303 8.09469 14.6983Z" fill="#28242D"/>
</g>
<defs>
<clipPath id="clip0_1305_6424">
<rect width="32" height="32" fill="white" transform="translate(0.5)"/>
</clipPath>
</defs>
</svg>
