<svg width="32" height="31" viewBox="0 0 32 31" fill="none" xmlns="http://www.w3.org/2000/svg">
<path d="M22.25 4.25C19.6687 4.25 17.4087 5.29062 16 7.04961C14.5912 5.29062 12.3312 4.25 9.75 4.25C7.69528 4.25217 5.72538 5.01835 4.27248 6.38045C2.81957 7.74255 2.00232 9.58933 2 11.5156C2 19.7188 14.9737 26.3586 15.5262 26.6328C15.6719 26.7063 15.8346 26.7447 16 26.7447C16.1653 26.7447 16.3281 26.7063 16.4737 26.6328C17.0262 26.3586 30 19.7188 30 11.5156C29.9977 9.58933 29.1804 7.74255 27.7275 6.38045C26.2746 5.01835 24.3047 4.25217 22.25 4.25ZM16 24.7344C13.7175 23.4875 4 17.8074 4 11.5156C4.00198 10.0865 4.60842 8.71647 5.68633 7.70593C6.76423 6.6954 8.22561 6.12686 9.75 6.125C12.1812 6.125 14.2225 7.33906 15.075 9.28906C15.1503 9.46101 15.2785 9.60808 15.4432 9.71158C15.6079 9.81508 15.8017 9.87034 16 9.87034C16.1983 9.87034 16.3921 9.81508 16.5568 9.71158C16.7215 9.60808 16.8497 9.46101 16.925 9.28906C17.7775 7.33555 19.8187 6.125 22.25 6.125C23.7744 6.12686 25.2358 6.6954 26.3137 7.70593C27.3916 8.71647 27.998 10.0865 28 11.5156C28 17.798 18.28 23.4863 16 24.7344Z" fill="white"/>
</svg>
