<svg width="28" height="28" viewBox="0 0 28 28" fill="none" xmlns="http://www.w3.org/2000/svg">
<path d="M12.8337 8.16675H19.8337M8.16699 8.16675H9.33366M8.16699 14.0001H9.33366M8.16699 19.8334H9.33366M12.8337 14.0001H19.8337M12.8337 19.8334H19.8337M2.91699 14.0001C2.91699 8.77575 2.91699 6.16241 4.53983 4.53958C6.16266 2.91675 8.77483 2.91675 14.0003 2.91675C19.2247 2.91675 21.838 2.91675 23.4608 4.53958C25.0837 6.16241 25.0837 8.77458 25.0837 14.0001C25.0837 19.2244 25.0837 21.8377 23.4608 23.4606C21.838 25.0834 19.2258 25.0834 14.0003 25.0834C8.77599 25.0834 6.16266 25.0834 4.53983 23.4606C2.91699 21.8377 2.91699 19.2256 2.91699 14.0001Z" stroke="white" stroke-width="1.5" stroke-linecap="round" stroke-linejoin="round"/>
</svg>
