<svg width="24" height="25" viewBox="0 0 24 25" fill="none" xmlns="http://www.w3.org/2000/svg">
<path d="M12 3.5C7.037 3.5 3 7.538 3 12.5C3 17.462 7.037 21.5 12 21.5C16.963 21.5 21 17.462 21 12.5C21 7.538 16.963 3.5 12 3.5ZM12 19.5C8.141 19.5 5 16.36 5 12.5C5 8.64 8.141 5.5 12 5.5C15.859 5.5 19 8.64 19 12.5C19 16.36 15.859 19.5 12 19.5ZM12.707 12.5L15.353 9.854C15.4462 9.75998 15.4986 9.63292 15.4986 9.5005C15.4986 9.36808 15.4462 9.24102 15.353 9.147C15.259 9.05375 15.1319 9.00143 14.9995 9.00143C14.8671 9.00143 14.74 9.05375 14.646 9.147L12 11.793L9.354 9.146C9.2597 9.05492 9.1334 9.00452 9.0023 9.00566C8.8712 9.0068 8.74579 9.05939 8.65309 9.15209C8.56039 9.2448 8.5078 9.3702 8.50666 9.5013C8.50552 9.6324 8.55592 9.7587 8.647 9.853L11.293 12.5L8.647 15.146C8.55311 15.2398 8.50032 15.367 8.50022 15.4996C8.50013 15.6323 8.55275 15.7596 8.6465 15.8535C8.74025 15.9474 8.86746 16.0002 9.00015 16.0003C9.13283 16.0004 9.26011 15.9478 9.354 15.854L12 13.207L14.646 15.853C14.6921 15.9008 14.7472 15.939 14.8081 15.9653C14.8691 15.9916 14.9347 16.0054 15.0011 16.0061C15.0675 16.0068 15.1333 15.9942 15.1948 15.9692C15.2563 15.9441 15.3122 15.9071 15.3592 15.8602C15.4062 15.8133 15.4434 15.7575 15.4686 15.6961C15.4938 15.6347 15.5066 15.5689 15.5061 15.5025C15.5056 15.4361 15.4919 15.3705 15.4658 15.3095C15.4397 15.2484 15.4017 15.1932 15.354 15.147L12.707 12.5Z" fill="black"/>
</svg>
