<svg width="25" height="24" viewBox="0 0 25 24" fill="none" xmlns="http://www.w3.org/2000/svg">
<path d="M14 4C13.6022 4 13.2206 4.15804 12.9393 4.43934C12.658 4.72064 12.5 5.10218 12.5 5.5C12.5 5.89782 12.658 6.27936 12.9393 6.56066C13.2206 6.84196 13.6022 7 14 7C14.3978 7 14.7794 6.84196 15.0607 6.56066C15.342 6.27936 15.5 5.89782 15.5 5.5C15.5 5.10218 15.342 4.72064 15.0607 4.43934C14.7794 4.15804 14.3978 4 14 4ZM13.64 8.77C12.45 8.87 9.2 11.46 9.2 11.46C9 11.61 9.06 11.6 9.22 11.88C9.38 12.15 9.36 12.17 9.55 12.04C9.75 11.91 10.08 11.7 10.63 11.36C12.75 10 10.97 13.14 10.06 18.43C9.7 21.05 12.06 19.7 12.67 19.3C13.27 18.91 14.88 17.8 15.04 17.69C15.26 17.54 15.1 17.42 14.93 17.17C14.81 17 14.69 17.12 14.69 17.12C14.04 17.55 12.85 18.45 12.69 17.88C12.5 17.31 13.72 13.4 14.39 10.71C14.5 10.07 14.8 8.67 13.64 8.77Z" fill="white"/>
</svg>
