<svg width="120" height="120" viewBox="0 0 120 120" fill="none" xmlns="http://www.w3.org/2000/svg">
<rect width="120" height="120" rx="20" fill="#D6CECE"/>
<path d="M20 90C20 84.6957 22.1071 79.6086 25.8579 75.8579C29.6086 72.1071 34.6957 70 40 70H80C85.3043 70 90.3914 72.1071 94.1421 75.8579C97.8929 79.6086 100 84.6957 100 90C100 92.6522 98.9464 95.1957 97.0711 97.0711C95.1957 98.9464 92.6522 100 90 100H30C27.3478 100 24.8043 98.9464 22.9289 97.0711C21.0536 95.1957 20 92.6522 20 90Z" stroke="#101B42" stroke-width="2" stroke-linejoin="round"/>
<path d="M60 50C68.2843 50 75 43.2843 75 35C75 26.7157 68.2843 20 60 20C51.7157 20 45 26.7157 45 35C45 43.2843 51.7157 50 60 50Z" stroke="#101B42" stroke-width="2"/>
</svg>
