<svg width="21" height="20" viewBox="0 0 21 20" fill="none" xmlns="http://www.w3.org/2000/svg">
<path d="M19.6819 13.2533L14.8237 11.18L14.8103 11.1741C14.5581 11.0714 14.2829 11.0301 14.0098 11.0541C13.7366 11.0782 13.4741 11.1666 13.2459 11.3116C13.219 11.3285 13.1932 11.3469 13.1685 11.3666L10.6585 13.4046C9.06828 12.6689 7.42653 11.1171 6.65412 9.62232L8.79706 7.19545C8.81768 7.17089 8.83728 7.14634 8.85584 7.11982C9.00478 6.90306 9.09515 6.6546 9.1189 6.39654C9.14265 6.13849 9.09904 5.87884 8.99197 5.64071V5.62893L6.80881 0.994194C6.66726 0.683115 6.42387 0.423977 6.11497 0.255464C5.80607 0.0869516 5.44823 0.0181024 5.09487 0.0591944C3.6975 0.234317 2.41484 0.887896 1.48646 1.89786C0.558081 2.90782 0.0474706 4.20511 0.0499971 5.54741C0.0499971 13.3456 6.71187 19.6903 14.9 19.6903C16.3094 19.6927 17.6716 19.2064 18.732 18.3222C19.7925 17.438 20.4787 16.2165 20.6626 14.8856C20.7058 14.5492 20.6337 14.2085 20.457 13.9143C20.2802 13.6201 20.0083 13.3883 19.6819 13.2533ZM14.9 18.1188C11.4003 18.1152 8.04506 16.7895 5.57041 14.4327C3.09576 12.0759 1.70382 8.88044 1.7 5.54741C1.69612 4.58834 2.05892 3.66071 2.72066 2.93776C3.3824 2.21482 4.29782 1.74599 5.29597 1.61884C5.29556 1.62276 5.29556 1.6267 5.29597 1.63062L7.46159 6.24669L5.33 8.67652C5.30836 8.70023 5.28871 8.72551 5.27122 8.75214C5.11603 8.97894 5.02499 9.24006 5.00692 9.51022C4.98885 9.78037 5.04437 10.0504 5.16809 10.2941C6.1024 12.114 8.02775 13.9339 9.95928 14.8228C10.2171 14.9395 10.5022 14.9905 10.7869 14.9709C11.0716 14.9513 11.3461 14.8617 11.5835 14.7108C11.61 14.6938 11.6355 14.6755 11.6598 14.6558L14.1668 12.6188L19.0137 14.6862H19.025C18.8931 15.6382 18.4016 16.5118 17.6423 17.1436C16.8831 17.7754 15.9082 18.1221 14.9 18.1188Z" fill="white"/>
</svg>
