<svg width="21" height="21" viewBox="0 0 21 21" fill="none" xmlns="http://www.w3.org/2000/svg">
<path d="M18.9615 0H2.03846C1.63044 0 1.23912 0.201136 0.950605 0.55916C0.662087 0.917184 0.5 1.40277 0.5 1.90909V19.0909C0.5 19.5972 0.662087 20.0828 0.950605 20.4408C1.23912 20.7989 1.63044 21 2.03846 21H18.9615C19.3696 21 19.7609 20.7989 20.0494 20.4408C20.3379 20.0828 20.5 19.5972 20.5 19.0909V1.90909C20.5 1.40277 20.3379 0.917184 20.0494 0.55916C19.7609 0.201136 19.3696 0 18.9615 0ZM18.9615 19.0909H2.03846V1.90909H18.9615V19.0909ZM15.1154 5.72727C15.1154 7.24624 14.6291 8.70299 13.7636 9.77707C12.898 10.8511 11.7241 11.4545 10.5 11.4545C9.27592 11.4545 8.10198 10.8511 7.23643 9.77707C6.37088 8.70299 5.88462 7.24624 5.88462 5.72727C5.88462 5.47411 5.96566 5.23132 6.10992 5.05231C6.25418 4.8733 6.44983 4.77273 6.65385 4.77273C6.85786 4.77273 7.05352 4.8733 7.19777 5.05231C7.34203 5.23132 7.42308 5.47411 7.42308 5.72727C7.42308 6.73992 7.74725 7.71109 8.32429 8.42714C8.90132 9.14318 9.68395 9.54545 10.5 9.54545C11.3161 9.54545 12.0987 9.14318 12.6757 8.42714C13.2527 7.71109 13.5769 6.73992 13.5769 5.72727C13.5769 5.47411 13.658 5.23132 13.8022 5.05231C13.9465 4.8733 14.1421 4.77273 14.3462 4.77273C14.5502 4.77273 14.7458 4.8733 14.8901 5.05231C15.0343 5.23132 15.1154 5.47411 15.1154 5.72727Z" fill="#DFDFDF"/>
</svg>
