<svg width="47" height="50" viewBox="0 0 47 50" fill="none" xmlns="http://www.w3.org/2000/svg">
<path d="M7.1875 9.25C6.80625 9.25 6.44062 9.40145 6.17103 9.67103C5.90145 9.94062 5.75 10.3063 5.75 10.6875C5.75 11.0687 5.90145 11.4344 6.17103 11.704C6.44062 11.9735 6.80625 12.125 7.1875 12.125H7.89475C8.20689 12.1255 8.51038 12.2277 8.75934 12.4159C9.00831 12.6042 9.18922 12.8684 9.27475 13.1686L13.8345 29.1249C14.0924 30.0253 14.6365 30.8174 15.3844 31.3812C16.1324 31.945 17.0436 32.25 17.9803 32.25H31.1161C31.9782 32.2501 32.8205 31.9919 33.5344 31.5087C34.2482 31.0254 34.8009 30.3393 35.121 29.5389L39.3588 18.9416C39.533 18.5056 39.5977 18.0335 39.5473 17.5666C39.497 17.0997 39.333 16.6523 39.0698 16.2634C38.8066 15.8746 38.4521 15.5561 38.0374 15.3359C37.6227 15.1156 37.1603 15.0003 36.6908 15H12.788L12.0376 12.378C11.7804 11.4775 11.237 10.6852 10.4896 10.1208C9.74212 9.55649 8.8313 9.25082 7.89475 9.25H7.1875ZM16.6003 28.3314L13.6103 17.875H36.6879L32.4501 28.4722C32.3433 28.7387 32.1592 28.9671 31.9214 29.128C31.6837 29.2889 31.4032 29.3749 31.1161 29.375H17.9803C17.6681 29.3745 17.3646 29.2723 17.1157 29.0841C16.8667 28.8958 16.6858 28.6316 16.6003 28.3314ZM18.6875 43.75C19.2538 43.75 19.8146 43.6385 20.3378 43.4217C20.861 43.205 21.3364 42.8874 21.7369 42.4869C22.1374 42.0864 22.455 41.611 22.6717 41.0878C22.8885 40.5646 23 40.0038 23 39.4375C23 38.8712 22.8885 38.3104 22.6717 37.7872C22.455 37.264 22.1374 36.7886 21.7369 36.3881C21.3364 35.9876 20.861 35.67 20.3378 35.4533C19.8146 35.2365 19.2538 35.125 18.6875 35.125C17.5438 35.125 16.4469 35.5794 15.6381 36.3881C14.8294 37.1969 14.375 38.2938 14.375 39.4375C14.375 40.5812 14.8294 41.6781 15.6381 42.4869C16.4469 43.2957 17.5438 43.75 18.6875 43.75ZM18.6875 40.875C18.3063 40.875 17.9406 40.7236 17.671 40.454C17.4015 40.1844 17.25 39.8187 17.25 39.4375C17.25 39.0563 17.4015 38.6906 17.671 38.421C17.9406 38.1514 18.3063 38 18.6875 38C19.0687 38 19.4344 38.1514 19.704 38.421C19.9736 38.6906 20.125 39.0563 20.125 39.4375C20.125 39.8187 19.9736 40.1844 19.704 40.454C19.4344 40.7236 19.0687 40.875 18.6875 40.875ZM30.1875 43.75C30.7538 43.75 31.3146 43.6385 31.8378 43.4217C32.361 43.205 32.8364 42.8874 33.2369 42.4869C33.6374 42.0864 33.955 41.611 34.1717 41.0878C34.3885 40.5646 34.5 40.0038 34.5 39.4375C34.5 38.8712 34.3885 38.3104 34.1717 37.7872C33.955 37.264 33.6374 36.7886 33.2369 36.3881C32.8364 35.9876 32.361 35.67 31.8378 35.4533C31.3146 35.2365 30.7538 35.125 30.1875 35.125C29.0438 35.125 27.9469 35.5794 27.1381 36.3881C26.3294 37.1969 25.875 38.2938 25.875 39.4375C25.875 40.5812 26.3294 41.6781 27.1381 42.4869C27.9469 43.2957 29.0438 43.75 30.1875 43.75ZM30.1875 40.875C29.8063 40.875 29.4406 40.7236 29.171 40.454C28.9015 40.1844 28.75 39.8187 28.75 39.4375C28.75 39.0563 28.9015 38.6906 29.171 38.421C29.4406 38.1514 29.8063 38 30.1875 38C30.5688 38 30.9344 38.1514 31.204 38.421C31.4736 38.6906 31.625 39.0563 31.625 39.4375C31.625 39.8187 31.4736 40.1844 31.204 40.454C30.9344 40.7236 30.5688 40.875 30.1875 40.875Z" fill="black"/>
<circle cx="35" cy="12.5" r="12" fill="#D9D9D9"/>
<path d="M38.625 18.5H30.6406V16.8203L33.5078 13.9219C34.0859 13.3281 34.5495 12.8333 34.8984 12.4375C35.2526 12.0365 35.5078 11.6719 35.6641 11.3438C35.8255 11.0156 35.9062 10.6641 35.9062 10.2891C35.9062 9.83594 35.7786 9.4974 35.5234 9.27344C35.2734 9.04427 34.9375 8.92969 34.5156 8.92969C34.0729 8.92969 33.6432 9.03125 33.2266 9.23438C32.8099 9.4375 32.375 9.72656 31.9219 10.1016L30.6094 8.54688C30.9375 8.26562 31.2839 8 31.6484 7.75C32.0182 7.5 32.4453 7.29948 32.9297 7.14844C33.4193 6.99219 34.0052 6.91406 34.6875 6.91406C35.4375 6.91406 36.0807 7.04948 36.6172 7.32031C37.1589 7.59115 37.5755 7.96094 37.8672 8.42969C38.1589 8.89323 38.3047 9.41927 38.3047 10.0078C38.3047 10.638 38.1797 11.2135 37.9297 11.7344C37.6797 12.2552 37.3151 12.7708 36.8359 13.2812C36.362 13.7917 35.7891 14.3568 35.1172 14.9766L33.6484 16.3594V16.4688H38.625V18.5Z" fill="black"/>
</svg>
