<svg width="46" height="47" viewBox="0 0 46 47" fill="none" xmlns="http://www.w3.org/2000/svg">
<path d="M7.1875 6.25C6.80625 6.25 6.44062 6.40145 6.17103 6.67103C5.90145 6.94062 5.75 7.30625 5.75 7.6875C5.75 8.06875 5.90145 8.43438 6.17103 8.70397C6.44062 8.97355 6.80625 9.125 7.1875 9.125H7.89475C8.20689 9.12554 8.51038 9.22767 8.75934 9.41595C9.00831 9.60423 9.18922 9.86843 9.27475 10.1686L13.8345 26.1249C14.0924 27.0253 14.6365 27.8174 15.3844 28.3812C16.1324 28.945 17.0436 29.25 17.9803 29.25H31.1161C31.9782 29.2501 32.8205 28.9919 33.5344 28.5087C34.2482 28.0254 34.8009 27.3393 35.121 26.5389L39.3588 15.9416C39.533 15.5056 39.5977 15.0335 39.5473 14.5666C39.497 14.0997 39.333 13.6523 39.0698 13.2634C38.8066 12.8746 38.4521 12.5561 38.0374 12.3359C37.6227 12.1156 37.1603 12.0003 36.6908 12H12.788L12.0376 9.378C11.7804 8.47747 11.237 7.68516 10.4896 7.12083C9.74212 6.55649 8.8313 6.25082 7.89475 6.25H7.1875ZM16.6003 25.3314L13.6103 14.875H36.6879L32.4501 25.4722C32.3433 25.7387 32.1592 25.9671 31.9214 26.128C31.6837 26.2889 31.4032 26.3749 31.1161 26.375H17.9803C17.6681 26.3745 17.3646 26.2723 17.1157 26.0841C16.8667 25.8958 16.6858 25.6316 16.6003 25.3314ZM18.6875 40.75C19.2538 40.75 19.8146 40.6385 20.3378 40.4217C20.861 40.205 21.3364 39.8874 21.7369 39.4869C22.1374 39.0864 22.455 38.611 22.6717 38.0878C22.8885 37.5646 23 37.0038 23 36.4375C23 35.8712 22.8885 35.3104 22.6717 34.7872C22.455 34.264 22.1374 33.7886 21.7369 33.3881C21.3364 32.9876 20.861 32.67 20.3378 32.4533C19.8146 32.2365 19.2538 32.125 18.6875 32.125C17.5438 32.125 16.4469 32.5794 15.6381 33.3881C14.8294 34.1969 14.375 35.2938 14.375 36.4375C14.375 37.5812 14.8294 38.6781 15.6381 39.4869C16.4469 40.2957 17.5438 40.75 18.6875 40.75ZM18.6875 37.875C18.3063 37.875 17.9406 37.7236 17.671 37.454C17.4015 37.1844 17.25 36.8187 17.25 36.4375C17.25 36.0563 17.4015 35.6906 17.671 35.421C17.9406 35.1514 18.3063 35 18.6875 35C19.0687 35 19.4344 35.1514 19.704 35.421C19.9736 35.6906 20.125 36.0563 20.125 36.4375C20.125 36.8187 19.9736 37.1844 19.704 37.454C19.4344 37.7236 19.0687 37.875 18.6875 37.875ZM30.1875 40.75C30.7538 40.75 31.3146 40.6385 31.8378 40.4217C32.361 40.205 32.8364 39.8874 33.2369 39.4869C33.6374 39.0864 33.955 38.611 34.1717 38.0878C34.3885 37.5646 34.5 37.0038 34.5 36.4375C34.5 35.8712 34.3885 35.3104 34.1717 34.7872C33.955 34.264 33.6374 33.7886 33.2369 33.3881C32.8364 32.9876 32.361 32.67 31.8378 32.4533C31.3146 32.2365 30.7538 32.125 30.1875 32.125C29.0438 32.125 27.9469 32.5794 27.1381 33.3881C26.3294 34.1969 25.875 35.2938 25.875 36.4375C25.875 37.5812 26.3294 38.6781 27.1381 39.4869C27.9469 40.2957 29.0438 40.75 30.1875 40.75ZM30.1875 37.875C29.8063 37.875 29.4406 37.7236 29.171 37.454C28.9015 37.1844 28.75 36.8187 28.75 36.4375C28.75 36.0563 28.9015 35.6906 29.171 35.421C29.4406 35.1514 29.8063 35 30.1875 35C30.5688 35 30.9344 35.1514 31.204 35.421C31.4736 35.6906 31.625 36.0563 31.625 36.4375C31.625 36.8187 31.4736 37.1844 31.204 37.454C30.9344 37.7236 30.5688 37.875 30.1875 37.875Z" fill="black"/>
</svg>
