<svg width="25" height="24" viewBox="0 0 25 24" fill="none" xmlns="http://www.w3.org/2000/svg">
<path d="M18.16 11.2C17.93 10.9 17.65 10.64 17.39 10.38C16.72 9.78 15.96 9.35 15.32 8.72C13.83 7.26 13.5 4.85 14.45 3C13.5 3.23 12.67 3.75 11.96 4.32C9.36999 6.4 8.34999 10.07 9.56999 13.22C9.60999 13.32 9.64999 13.42 9.64999 13.55C9.64999 13.77 9.49999 13.97 9.29999 14.05C9.06999 14.15 8.82999 14.09 8.63999 13.93C8.58289 13.8828 8.53537 13.8251 8.49999 13.76C7.36999 12.33 7.18999 10.28 7.94999 8.64C6.27999 10 5.36999 12.3 5.49999 14.47C5.55999 14.97 5.61999 15.47 5.78999 15.97C5.92999 16.57 6.19999 17.17 6.49999 17.7C7.57999 19.43 9.44999 20.67 11.46 20.92C13.6 21.19 15.89 20.8 17.53 19.32C19.36 17.66 20 15 19.06 12.72L18.93 12.46C18.72 12 18.16 11.2 18.16 11.2ZM15 17.5C14.72 17.74 14.26 18 13.9 18.1C12.78 18.5 11.66 17.94 11 17.28C12.19 17 12.9 16.12 13.11 15.23C13.28 14.43 12.96 13.77 12.83 13C12.71 12.26 12.73 11.63 13 10.94C13.19 11.32 13.39 11.7 13.63 12C14.4 13 15.61 13.44 15.87 14.8C15.91 14.94 15.93 15.08 15.93 15.23C15.96 16.05 15.6 16.95 15 17.5Z" fill="white"/>
</svg>
