<svg width="76" height="76" viewBox="0 0 76 76" fill="none" xmlns="http://www.w3.org/2000/svg">
<rect width="76" height="76" rx="20" fill="white"/>
<g clip-path="url(#clip0_1478_12517)">
<path fill-rule="evenodd" clip-rule="evenodd" d="M38 62.375C42.2791 62.3813 46.4838 61.2557 50.1875 59.1125V51.125C50.1875 48.8872 49.2985 46.7411 47.7162 45.1588C46.1339 43.5765 43.9878 42.6875 41.75 42.6875H34.25C32.0122 42.6875 29.8661 43.5765 28.2838 45.1588C26.7014 46.7411 25.8125 48.8872 25.8125 51.125V59.1125C29.5162 61.2557 33.7209 62.3813 38 62.375ZM55.8125 51.125V54.6388C59.0551 51.1674 61.2128 46.8242 62.0203 42.1431C62.8277 37.462 62.2498 32.6469 60.3575 28.2898C58.4652 23.9328 55.341 20.2235 51.369 17.6182C47.397 15.0128 42.7503 13.6248 38 13.6248C33.2497 13.6248 28.603 15.0128 24.631 17.6182C20.659 20.2235 17.5348 23.9328 15.6425 28.2898C13.7502 32.6469 13.1723 37.462 13.9797 42.1431C14.7872 46.8242 16.9449 51.1674 20.1875 54.6388V51.125C20.1875 48.2258 21.0831 45.3974 22.7518 43.0265C24.4205 40.6557 26.7808 38.8582 29.51 37.88C28.094 36.2512 27.1763 34.2495 26.8665 32.1136C26.5567 29.9777 26.8678 27.7978 27.7628 25.8338C28.6577 23.8699 30.0987 22.2048 31.9139 21.0372C33.729 19.8696 35.8417 19.2488 38 19.2488C40.1583 19.2488 42.271 19.8696 44.0861 21.0372C45.9013 22.2048 47.3423 23.8699 48.2372 25.8338C49.1322 27.7978 49.4433 29.9777 49.1335 32.1136C48.8237 34.2495 47.906 36.2512 46.49 37.88C49.2192 38.8582 51.5795 40.6557 53.2482 43.0265C54.9169 45.3974 55.8125 48.2258 55.8125 51.125ZM38 68C45.9565 68 53.5871 64.8393 59.2132 59.2132C64.8393 53.5871 68 45.9565 68 38C68 30.0435 64.8393 22.4129 59.2132 16.7868C53.5871 11.1607 45.9565 8 38 8C30.0435 8 22.4129 11.1607 16.7868 16.7868C11.1607 22.4129 8 30.0435 8 38C8 45.9565 11.1607 53.5871 16.7868 59.2132C22.4129 64.8393 30.0435 68 38 68ZM43.625 30.5C43.625 31.9918 43.0324 33.4226 41.9775 34.4775C40.9226 35.5324 39.4918 36.125 38 36.125C36.5082 36.125 35.0774 35.5324 34.0225 34.4775C32.9676 33.4226 32.375 31.9918 32.375 30.5C32.375 29.0082 32.9676 27.5774 34.0225 26.5225C35.0774 25.4676 36.5082 24.875 38 24.875C39.4918 24.875 40.9226 25.4676 41.9775 26.5225C43.0324 27.5774 43.625 29.0082 43.625 30.5Z" fill="#322D39"/>
</g>
<defs>
<clipPath id="clip0_1478_12517">
<rect width="60" height="60" fill="white" transform="translate(8 8)"/>
</clipPath>
</defs>
</svg>
