<svg width="25" height="24" viewBox="0 0 25 24" fill="none" xmlns="http://www.w3.org/2000/svg">
<path d="M8 5.5C8 4.30653 8.47411 3.16193 9.31802 2.31802C10.1619 1.47411 11.3065 1 12.5 1C13.6935 1 14.8381 1.47411 15.682 2.31802C16.5259 3.16193 17 4.30653 17 5.5V7H21.5V23H3.5V7H8V5.5ZM8 9H5.5V21H19.5V9H17V12H15V9H10V12H8V9ZM15 7V5.5C15 4.83696 14.7366 4.20107 14.2678 3.73223C13.7989 3.26339 13.163 3 12.5 3C11.837 3 11.2011 3.26339 10.7322 3.73223C10.2634 4.20107 10 4.83696 10 5.5V7H15Z" fill="white"/>
</svg>
