<svg width="22" height="20" viewBox="0 0 22 20" fill="none" xmlns="http://www.w3.org/2000/svg">
<g clip-path="url(#clip0_1484_2035)">
<path fill-rule="evenodd" clip-rule="evenodd" d="M11 18.125C12.569 18.1271 14.1107 17.7519 15.4688 17.0375V14.375C15.4688 13.6291 15.1428 12.9137 14.5626 12.3863C13.9824 11.8588 13.1955 11.5625 12.375 11.5625H9.625C8.80449 11.5625 8.01758 11.8588 7.43739 12.3863C6.8572 12.9137 6.53125 13.6291 6.53125 14.375V17.0375C7.88928 17.7519 9.43099 18.1271 11 18.125ZM17.5312 14.375V15.5463C18.7202 14.3891 19.5114 12.9414 19.8074 11.381C20.1035 9.82066 19.8916 8.21564 19.1978 6.76328C18.5039 5.31092 17.3584 4.07452 15.902 3.20605C14.4456 2.33759 12.7418 1.87493 11 1.87493C9.25824 1.87493 7.55443 2.33759 6.09803 3.20605C4.64162 4.07452 3.49609 5.31092 2.80225 6.76328C2.10841 8.21564 1.8965 9.82066 2.19257 11.381C2.48864 12.9414 3.27978 14.3891 4.46875 15.5463V14.375C4.46874 13.4086 4.79712 12.4658 5.40898 11.6755C6.02084 10.8852 6.8863 10.2861 7.887 9.96C7.36778 9.41708 7.03131 8.74984 6.91772 8.03787C6.80412 7.3259 6.91821 6.59926 7.24635 5.94461C7.5745 5.28995 8.10287 4.73493 8.76842 4.34573C9.43398 3.95653 10.2086 3.74959 11 3.74959C11.7914 3.74959 12.566 3.95653 13.2316 4.34573C13.8971 4.73493 14.4255 5.28995 14.7536 5.94461C15.0818 6.59926 15.1959 7.3259 15.0823 8.03787C14.9687 8.74984 14.6322 9.41708 14.113 9.96C15.1137 10.2861 15.9792 10.8852 16.591 11.6755C17.2029 12.4658 17.5313 13.4086 17.5312 14.375ZM11 20C13.9174 20 16.7153 18.9464 18.7782 17.0711C20.8411 15.1957 22 12.6522 22 10C22 7.34784 20.8411 4.8043 18.7782 2.92893C16.7153 1.05357 13.9174 0 11 0C8.08262 0 5.28473 1.05357 3.22183 2.92893C1.15893 4.8043 0 7.34784 0 10C0 12.6522 1.15893 15.1957 3.22183 17.0711C5.28473 18.9464 8.08262 20 11 20ZM13.0625 7.5C13.0625 7.99728 12.8452 8.47419 12.4584 8.82583C12.0716 9.17746 11.547 9.375 11 9.375C10.453 9.375 9.92839 9.17746 9.54159 8.82583C9.1548 8.47419 8.9375 7.99728 8.9375 7.5C8.9375 7.00272 9.1548 6.52581 9.54159 6.17417C9.92839 5.82254 10.453 5.625 11 5.625C11.547 5.625 12.0716 5.82254 12.4584 6.17417C12.8452 6.52581 13.0625 7.00272 13.0625 7.5Z" fill="white"/>
</g>
<defs>
<clipPath id="clip0_1484_2035">
<rect width="22" height="20" fill="white"/>
</clipPath>
</defs>
</svg>
