<svg width="22" height="24" viewBox="0 0 22 24" fill="none" xmlns="http://www.w3.org/2000/svg">
<path d="M19.594 16.4063C19.5154 16.4551 19.4288 16.4866 19.3392 16.4989C19.2495 16.5112 19.1584 16.5041 19.0713 16.478C18.9841 16.4518 18.9025 16.4072 18.8312 16.3467C18.7598 16.2861 18.7001 16.2108 18.6555 16.125L17.0227 13.0125C16.0734 13.7127 15.0263 14.2402 13.9221 14.5744L14.4265 17.8763C14.4414 17.9735 14.4386 18.0729 14.4182 18.1689C14.3979 18.2649 14.3603 18.3556 14.3078 18.4358C14.2553 18.516 14.1888 18.5841 14.1122 18.6363C14.0355 18.6884 13.9502 18.7236 13.8611 18.7397C13.8244 18.7462 13.7873 18.7497 13.7502 18.75C13.5876 18.7498 13.4303 18.6866 13.3063 18.5718C13.1823 18.4569 13.0996 18.2979 13.073 18.1228L12.5772 14.881C11.5315 15.0397 10.4707 15.0397 9.42497 14.881L8.92911 18.1228C8.90243 18.2982 8.81952 18.4575 8.69518 18.5724C8.57084 18.6872 8.41314 18.7502 8.2502 18.75C8.2122 18.7498 8.17427 18.7464 8.13676 18.7397C8.04765 18.7236 7.96232 18.6884 7.88566 18.6363C7.809 18.5841 7.74251 18.516 7.69 18.4358C7.63748 18.3556 7.59997 18.2649 7.5796 18.1689C7.55923 18.0729 7.55641 17.9735 7.57129 17.8763L8.07833 14.5744C6.97457 14.2391 5.928 13.7107 4.97942 13.0097L3.35176 16.125C3.30662 16.2108 3.24643 16.2861 3.17462 16.3465C3.10281 16.407 3.0208 16.4514 2.93326 16.4772C2.84572 16.5031 2.75436 16.5099 2.66442 16.4972C2.57447 16.4846 2.48769 16.4527 2.40903 16.4035C2.33037 16.3542 2.26137 16.2885 2.20597 16.2102C2.15058 16.1319 2.10987 16.0424 2.08616 15.9469C2.06246 15.8514 2.05624 15.7517 2.06784 15.6536C2.07945 15.5555 2.10865 15.4608 2.15379 15.375L3.87254 12.0938C3.26883 11.5248 2.71369 10.8972 2.21395 10.2188C2.15163 10.1429 2.10414 10.0539 2.07438 9.95729C2.04463 9.86069 2.03323 9.75849 2.04089 9.65693C2.04854 9.55536 2.07509 9.45657 2.11891 9.36657C2.16273 9.27657 2.2229 9.19726 2.29576 9.13347C2.36861 9.06969 2.45261 9.02277 2.54264 8.99558C2.63267 8.96839 2.72683 8.9615 2.81938 8.97533C2.91193 8.98916 3.00093 9.02342 3.08094 9.07602C3.16094 9.12862 3.23029 9.19846 3.28473 9.28127C4.71129 11.2069 7.20692 13.5 11.0002 13.5C14.7935 13.5 17.2891 11.2041 18.7157 9.28127C18.7695 9.19676 18.8387 9.12525 18.9189 9.07117C18.9992 9.01708 19.0888 8.9816 19.1821 8.96691C19.2755 8.95222 19.3706 8.95865 19.4616 8.98579C19.5526 9.01293 19.6375 9.06021 19.711 9.12468C19.7845 9.18915 19.8451 9.26943 19.8889 9.36054C19.9328 9.45164 19.959 9.55161 19.9659 9.65423C19.9728 9.75686 19.9603 9.85993 19.9291 9.95706C19.898 10.0542 19.8488 10.1433 19.7847 10.2188C19.285 10.8972 18.7299 11.5248 18.1261 12.0938L19.8449 15.375C19.891 15.4606 19.9211 15.5552 19.9335 15.6535C19.9459 15.7519 19.9402 15.8519 19.9169 15.9478C19.8935 16.0437 19.853 16.1337 19.7975 16.2123C19.7421 16.291 19.6729 16.357 19.594 16.4063Z" fill="#28242D"/>
</svg>
