<svg width="22" height="24" viewBox="0 0 22 24" fill="none" xmlns="http://www.w3.org/2000/svg">
<path d="M11.0001 9C11.7294 9 12.4289 9.31607 12.9446 9.87868C13.4603 10.4413 13.7501 11.2044 13.7501 12C13.7501 12.7956 13.4603 13.5587 12.9446 14.1213C12.4289 14.6839 11.7294 15 11.0001 15C10.2707 15 9.57126 14.6839 9.05554 14.1213C8.53981 13.5587 8.25008 12.7956 8.25008 12C8.25008 11.2044 8.53981 10.4413 9.05554 9.87868C9.57126 9.31607 10.2707 9 11.0001 9ZM11.0001 4.5C15.5834 4.5 19.4976 7.61 21.0834 12C19.4976 16.39 15.5834 19.5 11.0001 19.5C6.41675 19.5 2.50258 16.39 0.916748 12C2.50258 7.61 6.41675 4.5 11.0001 4.5ZM2.91508 12C3.65598 13.6503 4.80644 15.0407 6.23569 16.0133C7.66493 16.9858 9.31561 17.5013 11.0001 17.5013C12.6846 17.5013 14.3352 16.9858 15.7645 16.0133C17.1937 15.0407 18.3442 13.6503 19.0851 12C18.3442 10.3497 17.1937 8.95925 15.7645 7.98675C14.3352 7.01424 12.6846 6.49868 11.0001 6.49868C9.31561 6.49868 7.66493 7.01424 6.23569 7.98675C4.80644 8.95925 3.65598 10.3497 2.91508 12Z" fill="#28242D"/>
</svg>
