<svg width="61" height="61" viewBox="0 0 61 61" fill="none" xmlns="http://www.w3.org/2000/svg">
<path d="M50.6544 47.2441C53.3471 44.0043 55.2199 40.1636 56.1144 36.0469C57.0089 31.9302 56.8987 27.6587 55.7932 23.5936C54.6876 19.5285 52.6193 15.7895 49.7631 12.6928C46.9069 9.59619 43.3469 7.23299 39.3843 5.80317C35.4216 4.37335 31.1728 3.91897 26.9974 4.47847C22.822 5.03797 18.8428 6.59489 15.3963 9.01752C11.9499 11.4402 9.13765 14.6572 7.19749 18.3966C5.25732 22.1359 4.24632 26.2876 4.25001 30.5003C4.25143 36.6244 6.40953 42.5524 10.3456 47.2441L10.3081 47.276C10.4394 47.4335 10.5894 47.5685 10.7244 47.7241C10.8931 47.9172 11.075 48.0991 11.2494 48.2866C11.7744 48.8566 12.3144 49.4041 12.8806 49.9178C13.0531 50.0753 13.2313 50.2216 13.4056 50.3716C14.0056 50.8891 14.6225 51.3803 15.2619 51.8378C15.3444 51.8941 15.4194 51.9672 15.5019 52.0253V52.0028C19.8933 55.0931 25.1321 56.7517 30.5019 56.7517C35.8717 56.7517 41.1104 55.0931 45.5019 52.0028V52.0253C45.5844 51.9672 45.6575 51.8941 45.7419 51.8378C46.3794 51.3785 46.9981 50.8891 47.5981 50.3716C47.7725 50.2216 47.9506 50.0735 48.1231 49.9178C48.6894 49.4022 49.2294 48.8566 49.7544 48.2866C49.9288 48.0991 50.1088 47.9172 50.2794 47.7241C50.4125 47.5685 50.5644 47.4335 50.6956 47.2741L50.6544 47.2441ZM30.5 15.5003C32.1688 15.5003 33.8001 15.9952 35.1876 16.9223C36.5752 17.8494 37.6566 19.1672 38.2952 20.7089C38.9339 22.2507 39.101 23.9472 38.7754 25.5839C38.4498 27.2206 37.6462 28.724 36.4662 29.904C35.2862 31.084 33.7828 31.8876 32.1461 32.2132C30.5094 32.5388 28.8129 32.3717 27.2711 31.7331C25.7294 31.0944 24.4116 30.013 23.4845 28.6254C22.5574 27.2379 22.0625 25.6066 22.0625 23.9378C22.0625 21.7001 22.9515 19.554 24.5338 17.9716C26.1161 16.3893 28.2622 15.5003 30.5 15.5003ZM15.5131 47.2441C15.5457 44.7821 16.5462 42.432 18.2982 40.7021C20.0502 38.9722 22.4129 38.0016 24.875 38.0003H36.125C38.5872 38.0016 40.9498 38.9722 42.7018 40.7021C44.4539 42.432 45.4544 44.7821 45.4869 47.2441C41.3747 50.9497 36.0355 53.0005 30.5 53.0005C24.9645 53.0005 19.6253 50.9497 15.5131 47.2441Z" fill="black"/>
</svg>
