<svg width="11" height="17" viewBox="0 0 11 17" fill="none" xmlns="http://www.w3.org/2000/svg">
<path d="M0.686906 16.5671C0.452567 16.3327 0.320923 16.0148 0.320923 15.6834C0.320923 15.3519 0.452567 15.034 0.686906 14.7996L6.87441 8.61212L0.686906 2.42462C0.459209 2.18887 0.333215 1.87312 0.336063 1.54537C0.338911 1.21762 0.470373 0.904108 0.702133 0.672348C0.933893 0.440588 1.24741 0.309128 1.57515 0.30628C1.9029 0.303432 2.21865 0.429425 2.45441 0.657123L9.52566 7.72837C9.76 7.96278 9.89164 8.28067 9.89164 8.61212C9.89164 8.94358 9.76 9.26146 9.52566 9.49587L2.45441 16.5671C2.22 16.8015 1.90211 16.9331 1.57066 16.9331C1.2392 16.9331 0.921316 16.8015 0.686906 16.5671Z" fill="#101B42"/>
</svg>
