<svg width="17" height="11" viewBox="0 0 17 11" fill="none" xmlns="http://www.w3.org/2000/svg">
<path d="M0.365983 0.922624C0.600393 0.688285 0.918278 0.556641 1.24973 0.556641C1.58119 0.556641 1.89907 0.688285 2.13348 0.922624L8.32098 7.11012L14.5085 0.922624C14.7442 0.694926 15.06 0.568933 15.3877 0.571781C15.7155 0.574629 16.029 0.70609 16.2608 0.93785C16.4925 1.16961 16.624 1.48313 16.6268 1.81087C16.6297 2.13862 16.5037 2.45437 16.276 2.69012L9.20473 9.76137C8.97032 9.99571 8.65244 10.1274 8.32098 10.1274C7.98953 10.1274 7.67164 9.99571 7.43723 9.76137L0.365983 2.69012C0.131644 2.45571 0 2.13783 0 1.80637C0 1.47492 0.131644 1.15703 0.365983 0.922624Z" fill="#101B42"/>
</svg>
