<svg width="12" height="20" viewBox="0 0 12 20" fill="none" xmlns="http://www.w3.org/2000/svg">
<path fill-rule="evenodd" clip-rule="evenodd" d="M11.4134 8.58671C11.7879 8.96171 11.9983 9.47004 11.9983 10C11.9983 10.53 11.7879 11.0384 11.4134 11.4134L3.87206 18.9574C3.49686 19.3324 2.98806 19.543 2.45758 19.5429C1.92711 19.5428 1.41841 19.3319 1.04339 18.9567C0.668373 18.5815 0.457761 18.0727 0.457886 17.5422C0.458011 17.0118 0.668862 16.5031 1.04406 16.128L7.17206 10L1.04406 3.87204C0.679557 3.49501 0.477727 2.9899 0.482035 2.4655C0.486343 1.94111 0.696444 1.43938 1.06709 1.06839C1.43773 0.697394 1.93926 0.48682 2.46365 0.482018C2.98805 0.477215 3.49335 0.678569 3.87072 1.04271L11.4147 8.58538L11.4134 8.58671Z" fill="#464242"/>
</svg>
