<svg width="22" height="26" viewBox="0 0 22 26" fill="none" xmlns="http://www.w3.org/2000/svg">
<g clip-path="url(#clip0_1157_11228)">
<path fill-rule="evenodd" clip-rule="evenodd" d="M11.6481 17.0158C11.4762 17.2189 11.2431 17.333 11 17.333C10.7569 17.333 10.5238 17.2189 10.3519 17.0158L5.16632 10.8874C5.07877 10.7875 5.00894 10.6679 4.9609 10.5358C4.91285 10.4036 4.88757 10.2614 4.88651 10.1176C4.88545 9.97375 4.90865 9.8311 4.95474 9.69796C5.00083 9.56482 5.06889 9.44386 5.15496 9.34215C5.24103 9.24043 5.34338 9.15999 5.45603 9.10552C5.56869 9.05105 5.68939 9.02364 5.81111 9.02489C5.93282 9.02614 6.05311 9.05602 6.16494 9.1128C6.27678 9.16957 6.37793 9.2521 6.46249 9.35557L11 14.7181L15.5375 9.35557C15.7104 9.15824 15.9419 9.04904 16.1823 9.05151C16.4226 9.05398 16.6525 9.16791 16.8225 9.36877C16.9924 9.56963 17.0889 9.84134 17.0909 10.1254C17.093 10.4094 17.0006 10.6831 16.8337 10.8874L11.6481 17.0158Z" fill="black"/>
</g>
<defs>
<clipPath id="clip0_1157_11228">
<rect width="26" height="22" fill="white" transform="matrix(0 -1 1 0 0 26)"/>
</clipPath>
</defs>
</svg>
