<svg width="60" height="24" viewBox="0 0 60 24" fill="none" xmlns="http://www.w3.org/2000/svg">
<path d="M26.0106 23.6H21.1147L24.1745 0.414295H29.0709L26.0106 23.6ZM16.996 0.414295L12.3285 16.3616L11.7762 12.9275L11.7767 12.9288L10.1293 2.5019C10.1293 2.5019 9.93008 0.414295 7.80684 0.414295H0.0905434L0 0.806883C0 0.806883 2.35966 1.4122 5.12123 3.45701L9.37475 23.6006H14.4759L22.2651 0.414295H16.996ZM55.5045 23.6H60L56.0805 0.413675H52.1449C50.3275 0.413675 49.8848 2.14156 49.8848 2.14156L42.583 23.6H47.6866L48.7072 20.156H54.9311L55.5045 23.6ZM50.1172 15.3984L52.6896 6.72176L54.1368 15.3984H50.1172ZM42.9658 5.98992L43.6645 1.01093C43.6645 1.01093 41.5086 0 39.2611 0C36.8315 0 31.0619 1.30925 31.0619 7.67563C31.0619 13.6656 37.8335 13.74 37.8335 16.8863C37.8335 20.0326 31.7596 19.4688 29.755 17.4848L29.0272 22.6908C29.0272 22.6908 31.2133 24 34.5533 24C37.8944 24 42.9346 21.8671 42.9346 16.062C42.9346 10.0336 36.1021 9.47236 36.1021 6.85138C36.1026 4.22979 40.8707 4.56655 42.9658 5.98992Z" fill="white"/>
</svg>
